<svg xmlns="http://www.w3.org/2000/svg" 
viewBox="0 0 150 43" width="150" height="43">
<path d="M53.43 31.57c9.9 0 15.34-7.25 15.34-14.9 0-7.64-5.44-14.88-15.34-14.88-9.9 0-15.34 7.24-15.34 14.86 0 7.61 5.44 14.9 15.34 14.9v.02Zm0-31.6c13.35 0 17.45 10.4 17.45 16.68 0 6.27-4.1 16.68-17.45 16.68-13.36 0-17.46-10.4-17.46-16.68C35.97 10.36 40.07 0 53.43 0m20.4.72h3.18l15.98 29.33L108.97.72h3.18v31.92h-2.12V3.58h-.1L94.06 32.64h-2.12L76.04 3.58h-.1v29.06h-2.1V.72ZM33.67 20.55c-.74 6.08-6.31 12.83-16.17 12.83C7.5 33.38 0 27.26 0 16.7 0 8.97 5.44.03 17.5.03c7.92-.03 13.96 3.61 15.64 10.7h-2.15C29.43 4.6 23.67 1.79 17.5 1.79c-9.37 0-15.4 6.84-15.4 14.88 0 8.05 5.29 14.9 15.4 14.9 7.28 0 12.8-4.12 14.07-11.06l2.1.04Zm98.88 11.02c9.9 0 15.34-7.25 15.34-14.9 0-7.64-5.44-14.88-15.34-14.88-9.9 0-15.34 7.24-15.34 14.86 0 7.61 5.44 14.9 15.34 14.9v.02Zm0-31.6c13.36 0 17.46 10.4 17.46 16.68 0 6.27-4.1 16.68-17.46 16.68-13.36 0-17.46-10.4-17.46-16.68 0-6.28 4.1-16.68 17.46-16.68ZM27.93 40.12h-4.06v2.73h-.9v-5.8h.9v2.36h4.06v-2.36h.89v5.8h-.89v-2.73Zm5.21-3.22c2.4 0 3.35 1.57 3.35 3.05 0 1.48-.93 3.05-3.35 3.05-2.43 0-3.35-1.56-3.35-3.05 0-1.49.92-3.04 3.35-3.04Zm0 .75c-.47.02-.92.16-1.3.42-.39.26-.68.62-.85 1.05a2.24 2.24 0 0 0 .55 2.49 2.4 2.4 0 0 0 2.58.47 2.3 2.3 0 0 0 1.45-2.13 2.1 2.1 0 0 0-.67-1.7 2.24 2.24 0 0 0-1.76-.6Zm5.88.15h-2.26v-.75h5.4v.75h-2.25v5.05h-.9V37.8Zm3.8-.75h4.8v.75h-3.91v1.68h3.8v.75h-3.8v1.87h4.02v.75h-4.9v-5.8Zm5.93 0h.89v5.05h3.63v.75h-4.52v-5.8Zm5.62 3.9c0 1.04 1.02 1.3 1.92 1.3.9 0 1.62-.36 1.62-.99 0-.53-.43-.74-1.11-.86l-1.34-.22c-.72-.11-1.78-.39-1.78-1.52s.86-1.76 2.4-1.76c1.2 0 2.45.42 2.54 1.82h-.9c-.07-.45-.33-1.07-1.77-1.07-.67 0-1.38.26-1.38.95 0 .35.24.65.97.76l1.47.25c.47.07 1.8.3 1.8 1.48 0 1.48-1.34 1.9-2.57 1.9-1.34 0-2.75-.45-2.75-2.05h.88Zm11.97.21h-2.93l-.76 1.69h-.96l2.68-5.8h1.01l2.68 5.8h-.96l-.76-1.7Zm-1.47-3.31-1.13 2.56h2.27l-1.14-2.56Zm4.79.39v4.61h-.89v-5.8h1.04l3.83 4.62v-4.62h.89v5.8H73.5l-3.84-4.61Zm6.2-1.19h3.04c1.78 0 2.6 1.14 2.6 2.82 0 1.69-.72 2.98-2.56 2.98h-3.08v-5.8Zm3.04 5.05c1.46 0 1.72-1.18 1.72-2.22 0-1.03-.34-2.08-1.89-2.08h-2v4.3h2.17Zm6.49-5.05h3.7a1.55 1.55 0 0 1 1.18.41 1.46 1.46 0 0 1 .45 1.14c.02.31-.07.62-.25.88s-.45.45-.76.55c.53.07.84.55.87 1.23.05 1.08.08 1.35.29 1.58h-.94c-.14-.17-.14-.4-.18-1.1-.06-1.05-.43-1.36-1.16-1.36h-2.32v2.46h-.88v-5.8Zm3.35 2.6c.87 0 1.07-.51 1.07-.92 0-.55-.34-.93-1.05-.93h-2.5v1.85h2.48Zm2.94-2.6h4.8v.75h-3.91v1.68h3.8v.75h-3.8v1.87h4.02v.75h-4.9v-5.8Zm6.27 3.9c0 1.04 1.02 1.3 1.92 1.3.9 0 1.62-.36 1.62-.99 0-.53-.42-.74-1.11-.86l-1.34-.22c-.71-.11-1.78-.39-1.78-1.52s.86-1.76 2.4-1.76c1.2 0 2.45.42 2.54 1.82h-.89c-.08-.45-.34-1.07-1.77-1.07-.67 0-1.4.26-1.4.95 0 .35.25.65.98.76l1.47.25c.47.07 1.8.3 1.8 1.48 0 1.48-1.34 1.9-2.57 1.9-1.34 0-2.74-.45-2.74-2.05h.87Zm8.2-4.05c2.4 0 3.35 1.57 3.35 3.05 0 1.48-.92 3.05-3.35 3.05-2.42 0-3.35-1.56-3.35-3.05 0-1.49.95-3.04 3.35-3.04Zm0 .75c-.47.02-.92.16-1.3.42s-.68.62-.85 1.05a2.24 2.24 0 0 0 .56 2.49 2.4 2.4 0 0 0 2.58.47 2.33 2.33 0 0 0 1.45-2.13 2.1 2.1 0 0 0-.68-1.7 2.24 2.24 0 0 0-1.76-.6Zm4.33-.6h3.71a1.55 1.55 0 0 1 1.18.41 1.46 1.46 0 0 1 .45 1.14c.03.31-.06.62-.24.88a1.5 1.5 0 0 1-.76.55c.52.07.84.55.87 1.23.05 1.08.08 1.35.28 1.58h-.94c-.14-.17-.14-.4-.18-1.1-.06-1.05-.42-1.36-1.16-1.36h-2.31v2.46h-.89l-.01-5.8Zm3.35 2.6c.87 0 1.08-.51 1.08-.92 0-.55-.34-.93-1.05-.93h-2.51v1.85h2.48Zm4.59-1.85h-2.22v-.75h5.36v.75h-2.27v5.05h-.88l.01-5.05Zm4.18 3.15c0 1.04 1.02 1.3 1.93 1.3.9 0 1.61-.36 1.61-.99 0-.53-.42-.74-1.11-.86l-1.34-.22c-.72-.11-1.78-.39-1.78-1.52s.86-1.76 2.4-1.76c1.2 0 2.45.42 2.54 1.82h-.9c-.06-.45-.33-1.07-1.76-1.07-.67 0-1.4.26-1.4.95 0 .35.25.65.98.76l1.47.25c.47.07 1.8.3 1.8 1.48 0 1.48-1.34 1.9-2.57 1.9-1.34 0-2.74-.45-2.74-2.05h.87Z">
</path> 
</svg>